<mxfile host="app.diagrams.net" modified="2022-04-01T18:41:57.346Z" agent="5.0 (Macintosh; Intel Mac OS X 10_15_7) AppleWebKit/537.36 (KHTML, like Gecko) Chrome/99.0.4844.84 Safari/537.36" etag="G1ydg14SWbEyVzA_znaF" version="17.4.0" type="github">
  <diagram id="C5RBs43oDa-KdzZeNtuy" name="Page-1">
    <mxGraphModel dx="780" dy="1186" grid="1" gridSize="10" guides="1" tooltips="1" connect="1" arrows="1" fold="1" page="1" pageScale="1" pageWidth="827" pageHeight="1169" math="0" shadow="0">
      <root>
        <mxCell id="WIyWlLk6GJQsqaUBKTNV-0" />
        <mxCell id="WIyWlLk6GJQsqaUBKTNV-1" parent="WIyWlLk6GJQsqaUBKTNV-0" />
        <mxCell id="3xzHW0bOJJ4k3zTd05Cw-14" style="edgeStyle=orthogonalEdgeStyle;rounded=0;orthogonalLoop=1;jettySize=auto;html=1;" edge="1" parent="WIyWlLk6GJQsqaUBKTNV-1" source="3xzHW0bOJJ4k3zTd05Cw-0" target="3xzHW0bOJJ4k3zTd05Cw-1">
          <mxGeometry relative="1" as="geometry" />
        </mxCell>
        <mxCell id="3xzHW0bOJJ4k3zTd05Cw-0" value="페이지 상단 회원가입 클릭" style="ellipse;whiteSpace=wrap;html=1;" vertex="1" parent="WIyWlLk6GJQsqaUBKTNV-1">
          <mxGeometry x="230" y="80" width="150" height="60" as="geometry" />
        </mxCell>
        <mxCell id="3xzHW0bOJJ4k3zTd05Cw-15" style="edgeStyle=orthogonalEdgeStyle;rounded=0;orthogonalLoop=1;jettySize=auto;html=1;entryX=0.5;entryY=0;entryDx=0;entryDy=0;" edge="1" parent="WIyWlLk6GJQsqaUBKTNV-1" source="3xzHW0bOJJ4k3zTd05Cw-1" target="3xzHW0bOJJ4k3zTd05Cw-3">
          <mxGeometry relative="1" as="geometry" />
        </mxCell>
        <mxCell id="3xzHW0bOJJ4k3zTd05Cw-1" value="회원가입 페이지 이동" style="rounded=1;whiteSpace=wrap;html=1;" vertex="1" parent="WIyWlLk6GJQsqaUBKTNV-1">
          <mxGeometry x="245" y="170" width="120" height="40" as="geometry" />
        </mxCell>
        <mxCell id="3xzHW0bOJJ4k3zTd05Cw-16" style="edgeStyle=orthogonalEdgeStyle;rounded=0;orthogonalLoop=1;jettySize=auto;html=1;entryX=0.5;entryY=0;entryDx=0;entryDy=0;" edge="1" parent="WIyWlLk6GJQsqaUBKTNV-1" source="3xzHW0bOJJ4k3zTd05Cw-3" target="3xzHW0bOJJ4k3zTd05Cw-4">
          <mxGeometry relative="1" as="geometry" />
        </mxCell>
        <mxCell id="3xzHW0bOJJ4k3zTd05Cw-3" value="닉네임,&lt;br&gt;아이디 입력" style="shape=parallelogram;perimeter=parallelogramPerimeter;whiteSpace=wrap;html=1;fixedSize=1;" vertex="1" parent="WIyWlLk6GJQsqaUBKTNV-1">
          <mxGeometry x="245" y="240" width="120" height="60" as="geometry" />
        </mxCell>
        <mxCell id="3xzHW0bOJJ4k3zTd05Cw-18" style="edgeStyle=orthogonalEdgeStyle;rounded=0;orthogonalLoop=1;jettySize=auto;html=1;entryX=0.438;entryY=0;entryDx=0;entryDy=0;entryPerimeter=0;" edge="1" parent="WIyWlLk6GJQsqaUBKTNV-1" source="3xzHW0bOJJ4k3zTd05Cw-4" target="3xzHW0bOJJ4k3zTd05Cw-8">
          <mxGeometry relative="1" as="geometry" />
        </mxCell>
        <mxCell id="3xzHW0bOJJ4k3zTd05Cw-28" style="edgeStyle=orthogonalEdgeStyle;rounded=0;orthogonalLoop=1;jettySize=auto;html=1;entryX=0.5;entryY=1;entryDx=0;entryDy=0;" edge="1" parent="WIyWlLk6GJQsqaUBKTNV-1" source="3xzHW0bOJJ4k3zTd05Cw-4" target="3xzHW0bOJJ4k3zTd05Cw-10">
          <mxGeometry relative="1" as="geometry" />
        </mxCell>
        <mxCell id="3xzHW0bOJJ4k3zTd05Cw-4" value="아이디가 중복이 아닌가?" style="rhombus;whiteSpace=wrap;html=1;" vertex="1" parent="WIyWlLk6GJQsqaUBKTNV-1">
          <mxGeometry x="240" y="330" width="130" height="80" as="geometry" />
        </mxCell>
        <mxCell id="3xzHW0bOJJ4k3zTd05Cw-22" style="edgeStyle=orthogonalEdgeStyle;rounded=0;orthogonalLoop=1;jettySize=auto;html=1;entryX=0.5;entryY=0;entryDx=0;entryDy=0;" edge="1" parent="WIyWlLk6GJQsqaUBKTNV-1" source="3xzHW0bOJJ4k3zTd05Cw-7" target="3xzHW0bOJJ4k3zTd05Cw-11">
          <mxGeometry relative="1" as="geometry" />
        </mxCell>
        <mxCell id="3xzHW0bOJJ4k3zTd05Cw-26" style="edgeStyle=orthogonalEdgeStyle;rounded=0;orthogonalLoop=1;jettySize=auto;html=1;entryX=0;entryY=0.5;entryDx=0;entryDy=0;exitX=0;exitY=0.5;exitDx=0;exitDy=0;" edge="1" parent="WIyWlLk6GJQsqaUBKTNV-1" source="3xzHW0bOJJ4k3zTd05Cw-7" target="3xzHW0bOJJ4k3zTd05Cw-9">
          <mxGeometry relative="1" as="geometry">
            <Array as="points">
              <mxPoint x="190" y="618" />
              <mxPoint x="190" y="540" />
            </Array>
          </mxGeometry>
        </mxCell>
        <mxCell id="3xzHW0bOJJ4k3zTd05Cw-7" value="두 입력이 같은가?" style="rhombus;whiteSpace=wrap;html=1;" vertex="1" parent="WIyWlLk6GJQsqaUBKTNV-1">
          <mxGeometry x="250" y="585" width="125" height="65" as="geometry" />
        </mxCell>
        <mxCell id="3xzHW0bOJJ4k3zTd05Cw-19" style="edgeStyle=orthogonalEdgeStyle;rounded=0;orthogonalLoop=1;jettySize=auto;html=1;entryX=0.5;entryY=0;entryDx=0;entryDy=0;" edge="1" parent="WIyWlLk6GJQsqaUBKTNV-1" source="3xzHW0bOJJ4k3zTd05Cw-8" target="3xzHW0bOJJ4k3zTd05Cw-9">
          <mxGeometry relative="1" as="geometry" />
        </mxCell>
        <mxCell id="3xzHW0bOJJ4k3zTd05Cw-8" value="비밀번호 입력" style="shape=parallelogram;perimeter=parallelogramPerimeter;whiteSpace=wrap;html=1;fixedSize=1;" vertex="1" parent="WIyWlLk6GJQsqaUBKTNV-1">
          <mxGeometry x="252.5" y="450" width="120" height="40" as="geometry" />
        </mxCell>
        <mxCell id="3xzHW0bOJJ4k3zTd05Cw-21" style="edgeStyle=orthogonalEdgeStyle;rounded=0;orthogonalLoop=1;jettySize=auto;html=1;entryX=0.5;entryY=0;entryDx=0;entryDy=0;" edge="1" parent="WIyWlLk6GJQsqaUBKTNV-1" source="3xzHW0bOJJ4k3zTd05Cw-9" target="3xzHW0bOJJ4k3zTd05Cw-7">
          <mxGeometry relative="1" as="geometry" />
        </mxCell>
        <mxCell id="3xzHW0bOJJ4k3zTd05Cw-9" value="비밀번호 확인 입력" style="shape=parallelogram;perimeter=parallelogramPerimeter;whiteSpace=wrap;html=1;fixedSize=1;" vertex="1" parent="WIyWlLk6GJQsqaUBKTNV-1">
          <mxGeometry x="252.5" y="520" width="120" height="40" as="geometry" />
        </mxCell>
        <mxCell id="3xzHW0bOJJ4k3zTd05Cw-29" style="edgeStyle=orthogonalEdgeStyle;rounded=0;orthogonalLoop=1;jettySize=auto;html=1;entryX=0;entryY=0.5;entryDx=0;entryDy=0;" edge="1" parent="WIyWlLk6GJQsqaUBKTNV-1" source="3xzHW0bOJJ4k3zTd05Cw-10" target="3xzHW0bOJJ4k3zTd05Cw-3">
          <mxGeometry relative="1" as="geometry" />
        </mxCell>
        <mxCell id="3xzHW0bOJJ4k3zTd05Cw-10" value="&#39;이미 존재하는 아이디 입니다&#39; 출력" style="rounded=1;whiteSpace=wrap;html=1;" vertex="1" parent="WIyWlLk6GJQsqaUBKTNV-1">
          <mxGeometry x="10" y="300" width="180" height="50" as="geometry" />
        </mxCell>
        <mxCell id="3xzHW0bOJJ4k3zTd05Cw-23" style="edgeStyle=orthogonalEdgeStyle;rounded=0;orthogonalLoop=1;jettySize=auto;html=1;entryX=0.5;entryY=0;entryDx=0;entryDy=0;" edge="1" parent="WIyWlLk6GJQsqaUBKTNV-1" source="3xzHW0bOJJ4k3zTd05Cw-11" target="3xzHW0bOJJ4k3zTd05Cw-12">
          <mxGeometry relative="1" as="geometry" />
        </mxCell>
        <mxCell id="3xzHW0bOJJ4k3zTd05Cw-11" value="입력된 아이디, 비밀번호, 닉네임 데이터 저장" style="rounded=1;whiteSpace=wrap;html=1;" vertex="1" parent="WIyWlLk6GJQsqaUBKTNV-1">
          <mxGeometry x="246.5" y="680" width="132" height="60" as="geometry" />
        </mxCell>
        <mxCell id="3xzHW0bOJJ4k3zTd05Cw-24" style="edgeStyle=orthogonalEdgeStyle;rounded=0;orthogonalLoop=1;jettySize=auto;html=1;entryX=0.5;entryY=0;entryDx=0;entryDy=0;" edge="1" parent="WIyWlLk6GJQsqaUBKTNV-1" source="3xzHW0bOJJ4k3zTd05Cw-12" target="3xzHW0bOJJ4k3zTd05Cw-13">
          <mxGeometry relative="1" as="geometry" />
        </mxCell>
        <mxCell id="3xzHW0bOJJ4k3zTd05Cw-12" value="빈 회원 프로필 생성" style="rounded=1;whiteSpace=wrap;html=1;" vertex="1" parent="WIyWlLk6GJQsqaUBKTNV-1">
          <mxGeometry x="259.5" y="790" width="106" height="40" as="geometry" />
        </mxCell>
        <mxCell id="3xzHW0bOJJ4k3zTd05Cw-13" value="메인 페이지 이동" style="rounded=1;whiteSpace=wrap;html=1;" vertex="1" parent="WIyWlLk6GJQsqaUBKTNV-1">
          <mxGeometry x="252.5" y="880" width="120" height="30" as="geometry" />
        </mxCell>
        <mxCell id="3xzHW0bOJJ4k3zTd05Cw-30" value="Y" style="text;html=1;align=center;verticalAlign=middle;resizable=0;points=[];autosize=1;strokeColor=none;fillColor=none;" vertex="1" parent="WIyWlLk6GJQsqaUBKTNV-1">
          <mxGeometry x="310" y="420" width="20" height="20" as="geometry" />
        </mxCell>
        <mxCell id="3xzHW0bOJJ4k3zTd05Cw-31" value="Y" style="text;html=1;align=center;verticalAlign=middle;resizable=0;points=[];autosize=1;strokeColor=none;fillColor=none;" vertex="1" parent="WIyWlLk6GJQsqaUBKTNV-1">
          <mxGeometry x="320" y="650" width="20" height="20" as="geometry" />
        </mxCell>
        <mxCell id="3xzHW0bOJJ4k3zTd05Cw-32" value="N" style="text;html=1;align=center;verticalAlign=middle;resizable=0;points=[];autosize=1;strokeColor=none;fillColor=none;" vertex="1" parent="WIyWlLk6GJQsqaUBKTNV-1">
          <mxGeometry x="210" y="590" width="20" height="20" as="geometry" />
        </mxCell>
        <mxCell id="3xzHW0bOJJ4k3zTd05Cw-33" value="N" style="text;html=1;align=center;verticalAlign=middle;resizable=0;points=[];autosize=1;strokeColor=none;fillColor=none;" vertex="1" parent="WIyWlLk6GJQsqaUBKTNV-1">
          <mxGeometry x="200" y="370" width="20" height="20" as="geometry" />
        </mxCell>
        <mxCell id="3xzHW0bOJJ4k3zTd05Cw-46" style="edgeStyle=orthogonalEdgeStyle;rounded=0;orthogonalLoop=1;jettySize=auto;html=1;entryX=0.5;entryY=0;entryDx=0;entryDy=0;" edge="1" parent="WIyWlLk6GJQsqaUBKTNV-1" source="3xzHW0bOJJ4k3zTd05Cw-34" target="3xzHW0bOJJ4k3zTd05Cw-35">
          <mxGeometry relative="1" as="geometry" />
        </mxCell>
        <mxCell id="3xzHW0bOJJ4k3zTd05Cw-34" value="페이지 상단 로그인 링크 클릭" style="ellipse;whiteSpace=wrap;html=1;" vertex="1" parent="WIyWlLk6GJQsqaUBKTNV-1">
          <mxGeometry x="545" y="80" width="160" height="60" as="geometry" />
        </mxCell>
        <mxCell id="3xzHW0bOJJ4k3zTd05Cw-47" style="edgeStyle=orthogonalEdgeStyle;rounded=0;orthogonalLoop=1;jettySize=auto;html=1;entryX=0.5;entryY=0;entryDx=0;entryDy=0;" edge="1" parent="WIyWlLk6GJQsqaUBKTNV-1" source="3xzHW0bOJJ4k3zTd05Cw-35" target="3xzHW0bOJJ4k3zTd05Cw-37">
          <mxGeometry relative="1" as="geometry" />
        </mxCell>
        <mxCell id="3xzHW0bOJJ4k3zTd05Cw-35" value="로그인 페이지 이동" style="rounded=1;whiteSpace=wrap;html=1;" vertex="1" parent="WIyWlLk6GJQsqaUBKTNV-1">
          <mxGeometry x="565" y="170" width="120" height="30" as="geometry" />
        </mxCell>
        <mxCell id="3xzHW0bOJJ4k3zTd05Cw-40" style="edgeStyle=orthogonalEdgeStyle;rounded=0;orthogonalLoop=1;jettySize=auto;html=1;entryX=0.5;entryY=0;entryDx=0;entryDy=0;" edge="1" parent="WIyWlLk6GJQsqaUBKTNV-1" source="3xzHW0bOJJ4k3zTd05Cw-37" target="3xzHW0bOJJ4k3zTd05Cw-38">
          <mxGeometry relative="1" as="geometry" />
        </mxCell>
        <mxCell id="3xzHW0bOJJ4k3zTd05Cw-37" value="아이디, 비밀번호 입력" style="shape=parallelogram;perimeter=parallelogramPerimeter;whiteSpace=wrap;html=1;fixedSize=1;" vertex="1" parent="WIyWlLk6GJQsqaUBKTNV-1">
          <mxGeometry x="560" y="240" width="130" height="60" as="geometry" />
        </mxCell>
        <mxCell id="3xzHW0bOJJ4k3zTd05Cw-41" style="edgeStyle=orthogonalEdgeStyle;rounded=0;orthogonalLoop=1;jettySize=auto;html=1;entryX=0.5;entryY=1;entryDx=0;entryDy=0;" edge="1" parent="WIyWlLk6GJQsqaUBKTNV-1" source="3xzHW0bOJJ4k3zTd05Cw-38" target="3xzHW0bOJJ4k3zTd05Cw-39">
          <mxGeometry relative="1" as="geometry" />
        </mxCell>
        <mxCell id="3xzHW0bOJJ4k3zTd05Cw-43" style="edgeStyle=orthogonalEdgeStyle;rounded=0;orthogonalLoop=1;jettySize=auto;html=1;entryX=0.5;entryY=0;entryDx=0;entryDy=0;" edge="1" parent="WIyWlLk6GJQsqaUBKTNV-1" source="3xzHW0bOJJ4k3zTd05Cw-38" target="3xzHW0bOJJ4k3zTd05Cw-42">
          <mxGeometry relative="1" as="geometry" />
        </mxCell>
        <mxCell id="3xzHW0bOJJ4k3zTd05Cw-38" value="아이디, 비밀번호와 일치하는 User가 있는가?" style="rhombus;whiteSpace=wrap;html=1;" vertex="1" parent="WIyWlLk6GJQsqaUBKTNV-1">
          <mxGeometry x="542.5" y="360" width="165" height="80" as="geometry" />
        </mxCell>
        <mxCell id="3xzHW0bOJJ4k3zTd05Cw-48" style="edgeStyle=orthogonalEdgeStyle;rounded=0;orthogonalLoop=1;jettySize=auto;html=1;entryX=1;entryY=0.5;entryDx=0;entryDy=0;" edge="1" parent="WIyWlLk6GJQsqaUBKTNV-1" source="3xzHW0bOJJ4k3zTd05Cw-39" target="3xzHW0bOJJ4k3zTd05Cw-37">
          <mxGeometry relative="1" as="geometry">
            <Array as="points">
              <mxPoint x="810" y="270" />
            </Array>
          </mxGeometry>
        </mxCell>
        <mxCell id="3xzHW0bOJJ4k3zTd05Cw-39" value="&#39;아이디 혹은 비밀번호가 일치하지 않습니다&#39; 출력" style="rounded=1;whiteSpace=wrap;html=1;" vertex="1" parent="WIyWlLk6GJQsqaUBKTNV-1">
          <mxGeometry x="730" y="320" width="160" height="40" as="geometry" />
        </mxCell>
        <mxCell id="3xzHW0bOJJ4k3zTd05Cw-45" style="edgeStyle=orthogonalEdgeStyle;rounded=0;orthogonalLoop=1;jettySize=auto;html=1;" edge="1" parent="WIyWlLk6GJQsqaUBKTNV-1" source="3xzHW0bOJJ4k3zTd05Cw-42" target="3xzHW0bOJJ4k3zTd05Cw-44">
          <mxGeometry relative="1" as="geometry" />
        </mxCell>
        <mxCell id="3xzHW0bOJJ4k3zTd05Cw-42" value="현재 사용 User로 로그인" style="rounded=1;whiteSpace=wrap;html=1;" vertex="1" parent="WIyWlLk6GJQsqaUBKTNV-1">
          <mxGeometry x="557.5" y="480" width="135" height="40" as="geometry" />
        </mxCell>
        <mxCell id="3xzHW0bOJJ4k3zTd05Cw-44" value="메인 페이지로 이동" style="rounded=1;whiteSpace=wrap;html=1;" vertex="1" parent="WIyWlLk6GJQsqaUBKTNV-1">
          <mxGeometry x="565" y="560" width="120" height="40" as="geometry" />
        </mxCell>
        <mxCell id="3xzHW0bOJJ4k3zTd05Cw-49" value="Y" style="text;html=1;align=center;verticalAlign=middle;resizable=0;points=[];autosize=1;strokeColor=none;fillColor=none;" vertex="1" parent="WIyWlLk6GJQsqaUBKTNV-1">
          <mxGeometry x="630" y="440" width="20" height="20" as="geometry" />
        </mxCell>
        <mxCell id="3xzHW0bOJJ4k3zTd05Cw-50" value="N" style="text;html=1;align=center;verticalAlign=middle;resizable=0;points=[];autosize=1;strokeColor=none;fillColor=none;" vertex="1" parent="WIyWlLk6GJQsqaUBKTNV-1">
          <mxGeometry x="740" y="380" width="20" height="20" as="geometry" />
        </mxCell>
        <mxCell id="3xzHW0bOJJ4k3zTd05Cw-56" style="edgeStyle=orthogonalEdgeStyle;rounded=0;orthogonalLoop=1;jettySize=auto;html=1;entryX=0.5;entryY=0;entryDx=0;entryDy=0;" edge="1" parent="WIyWlLk6GJQsqaUBKTNV-1" source="3xzHW0bOJJ4k3zTd05Cw-51" target="3xzHW0bOJJ4k3zTd05Cw-52">
          <mxGeometry relative="1" as="geometry" />
        </mxCell>
        <mxCell id="3xzHW0bOJJ4k3zTd05Cw-51" value="마이페이지 (아이디 링크) 클릭" style="ellipse;whiteSpace=wrap;html=1;" vertex="1" parent="WIyWlLk6GJQsqaUBKTNV-1">
          <mxGeometry x="1010" y="70" width="130" height="80" as="geometry" />
        </mxCell>
        <mxCell id="3xzHW0bOJJ4k3zTd05Cw-57" style="edgeStyle=orthogonalEdgeStyle;rounded=0;orthogonalLoop=1;jettySize=auto;html=1;entryX=0.5;entryY=0;entryDx=0;entryDy=0;" edge="1" parent="WIyWlLk6GJQsqaUBKTNV-1" source="3xzHW0bOJJ4k3zTd05Cw-52" target="3xzHW0bOJJ4k3zTd05Cw-53">
          <mxGeometry relative="1" as="geometry" />
        </mxCell>
        <mxCell id="3xzHW0bOJJ4k3zTd05Cw-52" value="마이페이지로 이동" style="rounded=1;whiteSpace=wrap;html=1;" vertex="1" parent="WIyWlLk6GJQsqaUBKTNV-1">
          <mxGeometry x="1015" y="200" width="120" height="50" as="geometry" />
        </mxCell>
        <mxCell id="3xzHW0bOJJ4k3zTd05Cw-58" style="edgeStyle=orthogonalEdgeStyle;rounded=0;orthogonalLoop=1;jettySize=auto;html=1;entryX=0.5;entryY=0;entryDx=0;entryDy=0;" edge="1" parent="WIyWlLk6GJQsqaUBKTNV-1" source="3xzHW0bOJJ4k3zTd05Cw-53" target="3xzHW0bOJJ4k3zTd05Cw-54">
          <mxGeometry relative="1" as="geometry" />
        </mxCell>
        <mxCell id="3xzHW0bOJJ4k3zTd05Cw-53" value="프로필 편집 버튼 클릭" style="rounded=1;whiteSpace=wrap;html=1;" vertex="1" parent="WIyWlLk6GJQsqaUBKTNV-1">
          <mxGeometry x="1015" y="300" width="120" height="50" as="geometry" />
        </mxCell>
        <mxCell id="3xzHW0bOJJ4k3zTd05Cw-59" style="edgeStyle=orthogonalEdgeStyle;rounded=0;orthogonalLoop=1;jettySize=auto;html=1;entryX=0.5;entryY=0;entryDx=0;entryDy=0;" edge="1" parent="WIyWlLk6GJQsqaUBKTNV-1" source="3xzHW0bOJJ4k3zTd05Cw-54" target="3xzHW0bOJJ4k3zTd05Cw-55">
          <mxGeometry relative="1" as="geometry" />
        </mxCell>
        <mxCell id="3xzHW0bOJJ4k3zTd05Cw-54" value="프로필의 자기소개, &lt;br&gt;닉네임, 기술 스택 등 작성" style="shape=parallelogram;perimeter=parallelogramPerimeter;whiteSpace=wrap;html=1;fixedSize=1;" vertex="1" parent="WIyWlLk6GJQsqaUBKTNV-1">
          <mxGeometry x="1002.5" y="400" width="145" height="70" as="geometry" />
        </mxCell>
        <mxCell id="3xzHW0bOJJ4k3zTd05Cw-55" value="입력된 프로필 정보 USER DB에 저장" style="rounded=1;whiteSpace=wrap;html=1;" vertex="1" parent="WIyWlLk6GJQsqaUBKTNV-1">
          <mxGeometry x="1007.5" y="520" width="135" height="45" as="geometry" />
        </mxCell>
        <mxCell id="3xzHW0bOJJ4k3zTd05Cw-60" value="&lt;font style=&quot;font-size: 18px&quot;&gt;사용자 DB&lt;/font&gt;" style="shape=cylinder3;whiteSpace=wrap;html=1;boundedLbl=1;backgroundOutline=1;size=15;" vertex="1" parent="WIyWlLk6GJQsqaUBKTNV-1">
          <mxGeometry x="670" y="760" width="260" height="180" as="geometry" />
        </mxCell>
        <mxCell id="3xzHW0bOJJ4k3zTd05Cw-61" value="" style="endArrow=none;dashed=1;html=1;dashPattern=1 3;strokeWidth=2;rounded=0;fontSize=18;entryX=0;entryY=0.5;entryDx=0;entryDy=0;entryPerimeter=0;exitX=1;exitY=0.5;exitDx=0;exitDy=0;" edge="1" parent="WIyWlLk6GJQsqaUBKTNV-1" source="3xzHW0bOJJ4k3zTd05Cw-3" target="3xzHW0bOJJ4k3zTd05Cw-60">
          <mxGeometry width="50" height="50" relative="1" as="geometry">
            <mxPoint x="470" y="610" as="sourcePoint" />
            <mxPoint x="520" y="560" as="targetPoint" />
            <Array as="points">
              <mxPoint x="520" y="270" />
              <mxPoint x="520" y="850" />
            </Array>
          </mxGeometry>
        </mxCell>
        <mxCell id="3xzHW0bOJJ4k3zTd05Cw-62" value="" style="endArrow=none;dashed=1;html=1;dashPattern=1 3;strokeWidth=2;rounded=0;fontSize=18;exitX=1;exitY=0.5;exitDx=0;exitDy=0;entryX=-0.015;entryY=0.567;entryDx=0;entryDy=0;entryPerimeter=0;" edge="1" parent="WIyWlLk6GJQsqaUBKTNV-1" source="3xzHW0bOJJ4k3zTd05Cw-11" target="3xzHW0bOJJ4k3zTd05Cw-60">
          <mxGeometry width="50" height="50" relative="1" as="geometry">
            <mxPoint x="470" y="610" as="sourcePoint" />
            <mxPoint x="670" y="850" as="targetPoint" />
            <Array as="points">
              <mxPoint x="500" y="710" />
              <mxPoint x="500" y="862" />
            </Array>
          </mxGeometry>
        </mxCell>
        <mxCell id="3xzHW0bOJJ4k3zTd05Cw-63" value="" style="endArrow=none;dashed=1;html=1;dashPattern=1 3;strokeWidth=2;rounded=0;fontSize=18;exitX=1;exitY=0.5;exitDx=0;exitDy=0;" edge="1" parent="WIyWlLk6GJQsqaUBKTNV-1" source="3xzHW0bOJJ4k3zTd05Cw-12">
          <mxGeometry width="50" height="50" relative="1" as="geometry">
            <mxPoint x="510" y="610" as="sourcePoint" />
            <mxPoint x="660" y="810" as="targetPoint" />
          </mxGeometry>
        </mxCell>
        <mxCell id="3xzHW0bOJJ4k3zTd05Cw-64" value="" style="endArrow=none;dashed=1;html=1;dashPattern=1 3;strokeWidth=2;rounded=0;fontSize=18;exitX=1;exitY=1;exitDx=0;exitDy=0;entryX=0.5;entryY=0;entryDx=0;entryDy=0;entryPerimeter=0;" edge="1" parent="WIyWlLk6GJQsqaUBKTNV-1" source="3xzHW0bOJJ4k3zTd05Cw-38" target="3xzHW0bOJJ4k3zTd05Cw-60">
          <mxGeometry width="50" height="50" relative="1" as="geometry">
            <mxPoint x="760" y="610" as="sourcePoint" />
            <mxPoint x="810" y="560" as="targetPoint" />
            <Array as="points">
              <mxPoint x="800" y="420" />
            </Array>
          </mxGeometry>
        </mxCell>
        <mxCell id="3xzHW0bOJJ4k3zTd05Cw-65" value="" style="endArrow=none;dashed=1;html=1;dashPattern=1 3;strokeWidth=2;rounded=0;fontSize=18;exitX=1;exitY=0.5;exitDx=0;exitDy=0;exitPerimeter=0;entryX=0.5;entryY=1;entryDx=0;entryDy=0;" edge="1" parent="WIyWlLk6GJQsqaUBKTNV-1" source="3xzHW0bOJJ4k3zTd05Cw-60" target="3xzHW0bOJJ4k3zTd05Cw-55">
          <mxGeometry width="50" height="50" relative="1" as="geometry">
            <mxPoint x="1080" y="610" as="sourcePoint" />
            <mxPoint x="1130" y="560" as="targetPoint" />
            <Array as="points">
              <mxPoint x="1070" y="850" />
            </Array>
          </mxGeometry>
        </mxCell>
      </root>
    </mxGraphModel>
  </diagram>
</mxfile>
